if (_typeface_js && _typeface_js.loadFace) _typeface_js.loadFace({"glyphs":{"A":{"ha":1666,"x_min":0,"x_max":1389,"o":"m 694 1042 l 500 556 l 888 556 l 694 1042 m 556 1389 l 833 1389 l 1389 0 l 1111 0 l 1000 278 l 389 278 l 278 0 l 0 0 l 556 1389 z "},"B":{"ha":1666,"x_min":0,"x_max":1251,"o":"m 833 1111 l 780 1111 l 556 1111 l 556 833 l 766 833 l 833 833 q 886 844 861 833 q 932 873 916 857 q 962 918 952 897 q 972 971 972 947 q 962 1024 972 998 q 932 1069 949 1051 q 886 1099 909 1092 q 833 1111 853 1111 m 766 0 l 0 0 l 0 278 l 278 278 l 278 1111 l 0 1111 l 0 1389 l 556 1389 l 772 1389 l 833 1389 q 993 1356 960 1371 q 1127 1267 1070 1326 q 1218 1133 1191 1200 q 1251 972 1251 1055 q 1218 812 1251 895 q 1145 696 1195 750 l 1145 694 q 1218 576 1196 635 q 1251 416 1251 488 q 1218 256 1251 336 q 1127 122 1188 183 q 993 33 1070 62 q 833 0 952 16 l 766 0 m 833 556 l 780 556 l 556 556 l 556 278 l 766 278 l 833 278 q 886 289 861 278 q 932 319 916 302 q 962 363 952 342 q 972 416 972 392 q 962 469 972 444 q 932 514 949 496 q 886 544 909 537 q 833 556 853 556 z "},"C":{"ha":1666,"x_min":0,"x_max":1389,"o":"m 1078 533 q 1086 556 1078 533 l 1389 556 l 1336 427 q 1183 206 1282 298 q 962 53 1090 107 q 694 0 833 0 q 427 53 556 0 q 205 205 301 107 q 53 427 107 301 q 0 694 0 556 q 53 962 0 833 q 205 1184 107 1088 q 427 1336 301 1282 q 694 1389 556 1389 q 962 1336 833 1389 q 1111 1251 1086 1283 l 1111 1389 l 1389 1389 l 1389 833 l 1086 833 l 1078 856 q 989 989 1048 929 q 856 1078 929 1048 q 694 1111 779 1111 q 533 1078 610 1111 q 400 989 460 1048 q 311 856 340 929 q 278 694 278 779 q 311 533 278 610 q 400 400 340 460 q 533 311 460 340 q 694 278 610 278 q 856 311 779 278 q 989 400 929 340 q 1078 533 1048 460 z "},"D":{"ha":1666,"x_min":0,"x_max":1389,"o":"m 694 278 q 856 311 779 278 q 989 400 929 340 q 1078 533 1048 460 q 1111 694 1111 610 q 1078 856 1111 779 q 989 989 1048 929 q 856 1078 929 1048 q 694 1111 779 1111 l 556 1111 l 556 278 l 628 278 l 694 278 m 694 0 l 519 0 l 0 0 l 0 278 l 278 278 l 278 1111 l 0 1111 l 0 1389 l 694 1389 q 962 1336 833 1389 q 1184 1184 1088 1282 q 1336 962 1282 1088 q 1389 694 1389 833 q 1336 427 1389 556 q 1184 205 1282 301 q 962 53 1088 107 q 694 0 833 0 z "},"E":{"ha":1666,"x_min":0,"x_max":1389,"o":"m 0 1389 l 1389 1389 l 1389 833 l 1111 833 l 1111 1111 l 556 1111 l 556 833 l 833 833 l 833 556 l 556 556 l 556 278 l 1111 278 l 1111 556 l 1389 556 l 1389 0 l 0 0 l 0 278 l 278 278 l 278 1111 l 0 1111 l 0 1389 z "},"F":{"ha":1666,"x_min":0,"x_max":1389,"o":"m 556 278 l 833 278 l 833 0 l 0 0 l 0 278 l 278 278 l 278 1111 l 0 1111 l 0 1389 l 1389 1389 l 1389 833 l 1111 833 l 1111 1111 l 556 1111 l 556 833 l 833 833 l 833 556 l 556 556 l 556 278 z "},"G":{"ha":1666,"x_min":0,"x_max":1389,"o":"m 993 983 l 989 989 q 856 1078 948 1040 q 694 1111 774 1111 q 533 1078 614 1111 q 400 989 457 1046 q 311 856 343 932 q 278 694 278 774 q 311 533 278 614 q 400 400 343 457 q 533 311 457 343 q 694 278 614 278 q 856 311 774 278 q 989 400 932 343 l 1035 452 l 833 450 l 833 696 l 1389 694 l 1389 0 l 1111 0 l 1111 138 q 962 53 1086 106 q 694 0 833 0 q 427 53 556 0 q 205 205 302 104 q 53 427 104 302 q 0 694 0 556 q 53 962 0 833 q 205 1184 104 1086 q 427 1336 302 1284 q 694 1389 556 1389 q 962 1336 836 1389 q 1183 1183 1072 1290 q 1322 990 1252 1118 l 1326 983 l 993 983 z "},"H":{"ha":1666,"x_min":0,"x_max":1389,"o":"m 0 1389 l 278 1389 l 278 833 l 1111 833 l 1111 1389 l 1389 1389 l 1389 0 l 1111 0 l 1111 556 l 278 556 l 278 0 l 0 0 l 0 1389 z "},"I":{"ha":1666,"x_min":278,"x_max":1111,"o":"m 278 0 l 278 278 l 556 278 l 556 1111 l 278 1111 l 278 1389 l 1111 1389 l 1111 1111 l 833 1111 l 833 278 l 1111 278 l 1111 0 l 278 0 z "},"J":{"ha":1666,"x_min":0,"x_max":1389,"o":"m 278 694 q 309 534 278 628 q 400 400 331 469 q 534 309 458 342 q 694 278 613 278 q 854 309 776 278 q 989 400 930 342 q 1080 534 1047 458 q 1111 694 1099 586 l 1111 833 l 1111 1389 l 1389 1389 l 1389 833 l 1389 694 q 1336 429 1363 494 q 1184 205 1283 301 q 960 53 1088 106 q 694 0 833 0 q 429 53 556 0 q 205 205 312 100 q 53 429 106 301 q 0 694 0 556 q 278 694 0 694 z "},"K":{"ha":1666,"x_min":0,"x_max":1270,"o":"m 0 1389 l 278 1389 l 278 868 l 798 1389 l 1153 1389 l 475 694 l 1270 0 l 878 0 l 278 521 l 278 0 l 0 0 l 0 1389 z "},"L":{"ha":1666,"x_min":0,"x_max":1389,"o":"m 0 1389 l 833 1389 l 833 1111 l 556 1111 l 556 278 l 1111 278 l 1111 556 l 1389 556 l 1389 0 l 0 0 l 0 278 l 278 278 l 278 1111 l 0 1111 l 0 1389 z "},"M":{"ha":1666,"x_min":0,"x_max":1389,"o":"m 0 0 m 0 0 l 0 1389 l 278 1389 l 694 833 l 1111 1389 l 1389 1389 l 1389 0 l 1111 0 l 1111 903 l 833 556 l 556 556 l 278 903 l 278 0 l 0 0 z "},"N":{"ha":1666,"x_min":0,"x_max":1389,"o":"m 0 1389 l 278 1389 l 1111 425 l 1111 1111 l 833 1111 l 833 1389 l 1389 1389 l 1389 0 l 1111 0 l 278 964 l 278 278 l 556 278 l 556 0 l 0 0 l 0 1389 z "},"O":{"ha":1666,"x_min":0,"x_max":1389,"o":"m 854 1080 q 694 1111 776 1111 q 534 1080 613 1111 q 400 989 458 1047 q 309 854 342 930 q 278 694 278 776 q 309 534 278 613 q 400 400 342 458 q 534 309 458 342 q 694 278 613 278 q 854 309 776 278 q 989 400 930 342 q 1080 534 1047 458 q 1111 694 1111 613 q 1080 854 1111 776 q 989 989 1047 930 q 854 1080 930 1047 m 429 1336 q 492 1362 429 1336 q 694 1389 556 1389 q 960 1336 833 1389 q 1184 1184 1088 1283 q 1336 960 1283 1088 q 1389 694 1389 833 q 1336 429 1389 556 q 1184 205 1283 301 q 960 53 1088 106 q 694 0 833 0 q 429 53 556 0 q 205 205 301 106 q 53 429 106 301 q 0 694 0 556 q 53 960 0 833 q 205 1184 106 1088 q 429 1336 301 1283 z "},"P":{"ha":1666,"x_min":0,"x_max":1251,"o":"m 833 1111 l 780 1111 l 556 1111 l 556 833 l 766 833 l 833 833 q 886 845 869 837 q 932 875 909 852 q 962 920 952 898 q 972 972 972 945 q 962 1025 972 997 q 932 1070 952 1047 q 886 1100 911 1090 q 833 1111 860 1111 m 833 1389 q 993 1356 917 1389 q 1127 1267 1069 1326 q 1218 1133 1187 1204 q 1251 972 1251 1055 q 1218 812 1251 890 q 1127 678 1187 736 q 993 587 1069 618 q 833 556 956 572 l 766 556 l 556 556 l 556 278 l 833 278 l 833 0 l 0 0 l 0 278 l 278 278 l 278 1111 l 0 1111 l 0 1389 l 772 1389 l 833 1389 z "},"Q":{"ha":1666,"x_min":0,"x_max":1389,"o":"m 1389 0 l 1116 0 l 1032 88 q 694 0 852 0 q 673 0 684 0 q 655 0 665 0 q 639 0 647 0 q 427 53 549 0 q 205 205 302 107 q 53 429 103 307 q 0 694 0 557 q 53 960 0 834 q 205 1184 104 1084 q 429 1336 305 1284 q 694 1389 555 1389 q 960 1336 834 1389 q 1184 1184 1084 1284 q 1336 960 1284 1084 q 1389 694 1389 834 q 1336 429 1389 578 q 1236 266 1306 346 l 1389 100 l 1389 0 m 1046 468 q 1080 534 1067 498 q 1111 694 1111 648 q 1080 854 1111 776 q 989 989 1047 930 q 854 1080 930 1047 q 694 1111 776 1111 q 534 1080 613 1111 q 400 989 458 1047 q 309 854 342 930 q 278 694 278 776 q 309 534 278 613 q 400 400 342 458 q 534 309 463 338 q 694 278 613 278 q 701 278 699 278 q 708 278 708 278 q 713 277 711 277 q 836 302 770 277 l 658 498 l 833 694 l 1046 468 z "},"R":{"ha":1666,"x_min":0,"x_max":1389,"o":"m 731 556 l 556 556 l 556 278 l 555 278 l 556 0 l 0 0 l 0 278 l 278 278 l 278 1111 l 0 1111 l 0 1389 l 772 1389 l 833 1389 q 993 1356 960 1371 q 1127 1267 1070 1326 q 1218 1133 1191 1200 q 1251 972 1251 1055 q 1218 812 1251 890 q 1127 678 1187 732 q 975 582 1093 644 l 1389 0 l 1111 0 l 731 556 m 833 1111 l 780 1111 l 556 1111 l 556 833 l 766 833 l 833 833 q 886 845 869 837 q 932 875 909 852 q 962 920 952 898 q 972 972 972 945 q 962 1025 972 997 q 932 1070 952 1047 q 886 1100 911 1090 q 833 1111 860 1111 z "},"S":{"ha":1666,"x_min":0,"x_max":1392,"o":"m 975 0 q 416 0 975 0 q 256 33 334 0 q 122 122 182 62 q 33 256 62 182 q 0 416 0 334 l 0 419 l 278 419 l 278 416 q 289 363 278 392 q 320 320 300 336 q 363 289 336 300 q 416 278 392 278 l 972 278 l 975 278 q 1028 289 1000 278 q 1073 320 1054 298 q 1103 363 1093 338 q 1114 416 1114 387 q 1103 469 1114 446 q 1073 514 1093 494 q 1028 544 1055 532 q 975 556 1001 556 l 418 556 l 416 556 q 256 587 327 556 q 122 678 175 625 q 33 812 62 738 q 0 972 0 890 q 33 1133 0 1055 q 122 1267 62 1207 q 256 1356 182 1326 q 416 1389 334 1389 l 972 1389 q 1133 1356 1055 1389 q 1267 1267 1207 1326 q 1356 1133 1326 1207 q 1389 972 1389 1055 l 1389 970 l 1111 970 l 1111 972 q 1100 1025 1111 997 q 1069 1069 1089 1053 q 1025 1100 1053 1089 q 972 1111 997 1111 l 416 1111 q 363 1100 392 1111 q 319 1070 339 1090 q 289 1025 298 1050 q 278 972 278 997 q 289 920 278 948 q 320 875 298 894 q 363 845 335 859 q 416 833 391 833 l 418 833 l 975 833 q 1135 802 1061 833 q 1270 711 1206 772 q 1359 576 1329 654 q 1392 416 1392 499 q 1359 256 1392 334 q 1270 122 1329 182 q 1135 33 1210 62 q 975 0 1058 0 z "},"T":{"ha":1666,"x_min":0,"x_max":1389,"o":"m 1111 1111 m 1111 1111 m 0 1389 l 1389 1389 l 1389 833 l 1111 833 l 1111 1111 l 833 1111 l 833 278 l 1111 278 l 1111 0 l 278 0 l 278 278 l 556 278 l 556 1111 l 278 1111 l 278 833 l 0 833 l 0 1389 z "},"U":{"ha":1666,"x_min":-1,"x_max":1389,"o":"m 282 694 q 309 534 294 574 q 400 400 340 460 q 534 309 458 342 q 694 278 613 278 q 854 309 776 278 q 989 400 930 342 q 1080 534 1047 458 q 1111 694 1099 586 l 1111 833 l 1111 1389 l 1389 1389 l 1389 833 l 1389 694 q 1336 429 1363 494 q 1184 205 1283 301 q 960 53 1088 106 q 694 0 833 0 q 429 53 556 0 q 205 205 301 106 q 53 429 106 301 q 0 694 27 490 l -1 833 l 0 1389 l 278 1389 l 278 833 q 282 694 278 727 z "},"V":{"ha":1666,"x_min":0,"x_max":1389,"o":"m 879 829 l 1111 1389 l 1389 1389 l 833 0 l 556 0 l 0 1389 l 278 1389 l 505 825 l 694 347 l 879 829 z "},"W":{"ha":1666,"x_min":-3,"x_max":1389,"o":"m -3 1389 l 305 1389 l 416 278 l 556 833 l 833 833 l 972 286 l 1084 1389 l 1389 1389 l 1291 0 l 833 0 l 694 416 l 556 0 l 98 0 l -3 1389 z "},"X":{"ha":1666,"x_min":0,"x_max":1389,"o":"m 0 0 l 507 694 l 0 1389 l 374 1389 l 693 951 l 1015 1389 l 1389 1389 l 882 694 l 1389 0 l 1015 0 l 693 438 l 374 0 l 0 0 z "},"Y":{"ha":1666,"x_min":0,"x_max":1389,"o":"m 833 632 l 833 0 l 556 0 l 556 629 l 506 697 l 0 1389 l 374 1389 l 694 952 l 1015 1389 l 1389 1389 l 979 831 l 880 697 l 833 632 z "},"Z":{"ha":1666,"x_min":0,"x_max":1389,"o":"m 422 278 m 1111 278 m 967 1111 m 1111 278 m 1389 1389 l 1389 1111 l 425 278 l 1111 278 l 1111 556 l 1389 556 l 1389 0 l 0 0 l 0 278 l 964 1111 l 278 1111 l 278 833 l 0 833 l 0 1389 l 1389 1389 z "},"a":{"ha":1666,"x_min":0,"x_max":1389,"o":"m 694 1042 l 500 556 l 888 556 l 694 1042 m 833 1389 l 1389 0 l 1111 0 l 1000 278 l 389 278 l 278 0 l 0 0 l 556 1389 l 833 1389 z "},"b":{"ha":1666,"x_min":0,"x_max":1251,"o":"m 418 1111 q 365 1099 397 1111 q 319 1069 342 1092 q 289 1024 301 1051 q 278 971 278 998 q 289 918 278 943 q 319 873 298 897 q 365 844 335 857 q 418 833 389 833 l 484 833 l 694 833 l 694 1111 l 471 1111 l 418 1111 m 484 0 l 418 0 q 258 33 293 18 q 123 122 180 62 q 33 256 60 189 q 0 416 0 334 q 33 576 0 491 q 106 694 54 635 l 106 696 q 33 812 56 750 q 0 972 0 895 q 33 1133 0 1053 q 123 1267 62 1206 q 258 1356 180 1326 q 418 1389 300 1373 l 479 1389 l 694 1389 l 1251 1389 l 1251 1111 l 972 1111 l 972 278 l 1251 278 l 1251 0 l 484 0 m 418 556 q 365 544 397 556 q 319 514 342 537 q 289 469 301 496 q 278 416 278 444 q 289 363 278 388 q 319 319 298 342 q 365 289 335 302 q 418 278 389 278 l 484 278 l 694 278 l 694 556 l 471 556 l 418 556 z "},"c":{"ha":1666,"x_min":0,"x_max":1389,"o":"m 311 533 q 400 400 340 460 q 533 311 460 340 q 694 278 610 278 q 856 311 779 278 q 989 400 929 340 q 1078 533 1048 460 q 1111 694 1111 610 q 1078 856 1111 779 q 989 989 1048 929 q 856 1078 929 1048 q 694 1111 779 1111 q 533 1078 610 1111 q 400 989 460 1048 q 311 856 340 929 l 302 833 l 0 833 l 0 1389 l 278 1389 l 278 1251 q 427 1336 302 1283 q 694 1389 556 1389 q 962 1336 833 1389 q 1184 1184 1088 1282 q 1336 962 1282 1088 q 1389 694 1389 833 q 1336 427 1389 556 q 1184 205 1282 301 q 962 53 1088 107 q 694 0 833 0 q 427 53 556 0 q 206 206 298 107 q 53 427 107 298 l 0 556 l 302 556 l 311 533 z "},"d":{"ha":1666,"x_min":0,"x_max":1389,"o":"m 694 278 q 761 278 694 278 l 833 278 l 833 1111 l 694 1111 q 533 1078 610 1111 q 400 989 460 1048 q 311 856 340 929 q 278 694 278 779 q 311 533 278 610 q 400 400 340 460 q 533 311 460 340 q 694 278 610 278 m 694 0 q 427 53 556 0 q 205 205 301 107 q 53 427 107 301 q 0 694 0 556 q 53 962 0 833 q 205 1184 107 1088 q 427 1336 301 1282 q 694 1389 556 1389 l 1389 1389 l 1389 1111 l 1111 1111 l 1111 278 l 1389 278 l 1389 0 l 869 0 l 694 0 z "},"e":{"ha":1666,"x_min":0,"x_max":1389,"o":"m 1389 1389 l 1389 1111 l 1111 1111 l 1111 278 l 1389 278 l 1389 0 l 0 0 l 0 556 l 278 556 l 278 278 l 833 278 l 833 556 l 556 556 l 556 833 l 833 833 l 833 1111 l 278 1111 l 278 833 l 0 833 l 0 1389 l 1389 1389 z "},"f":{"ha":1666,"x_min":0,"x_max":1389,"o":"m 833 278 l 833 556 l 556 556 l 556 833 l 833 833 l 833 1111 l 278 1111 l 278 833 l 0 833 l 0 1389 l 1389 1389 l 1389 1111 l 1111 1111 l 1111 278 l 1389 278 l 1389 0 l 556 0 l 556 278 l 833 278 z "},"g":{"ha":1666,"x_min":0,"x_max":1389,"o":"m 396 983 l 62 983 l 66 990 q 206 1183 137 1118 q 427 1336 317 1290 q 694 1389 553 1389 q 962 1336 833 1389 q 1184 1184 1086 1284 q 1336 962 1284 1086 q 1389 694 1389 833 q 1336 427 1389 556 q 1184 205 1284 302 q 962 53 1086 104 q 694 0 833 0 q 427 53 556 0 q 278 138 302 106 l 278 0 l 0 0 l 0 694 l 556 696 l 556 450 l 354 452 l 400 400 q 533 311 457 343 q 694 278 614 278 q 856 311 774 278 q 989 400 932 343 q 1078 533 1046 457 q 1111 694 1111 614 q 1078 856 1111 774 q 989 989 1046 932 q 856 1078 932 1046 q 694 1111 774 1111 q 533 1078 614 1111 q 400 989 441 1040 l 396 983 z "},"h":{"ha":1666,"x_min":0,"x_max":1389,"o":"m 1389 1389 l 1389 0 l 1111 0 l 1111 556 l 278 556 l 278 0 l 0 0 l 0 1389 l 278 1389 l 278 833 l 1111 833 l 1111 1389 l 1389 1389 z "},"i":{"ha":1666,"x_min":278,"x_max":1111,"o":"m 1111 0 l 278 0 l 278 278 l 556 278 l 556 1111 l 278 1111 l 278 1389 l 1111 1389 l 1111 1111 l 833 1111 l 833 278 l 1111 278 l 1111 0 z "},"j":{"ha":1666,"x_min":0,"x_max":1389,"o":"m 1111 694 q 1389 694 1111 694 q 1336 429 1389 556 q 1184 205 1283 301 q 960 53 1077 100 q 694 0 833 0 q 429 53 556 0 q 205 205 301 106 q 53 429 106 301 q 0 694 26 494 l 0 833 l 0 1389 l 278 1389 l 278 833 l 278 694 q 309 534 290 586 q 400 400 342 458 q 534 309 458 342 q 694 278 613 278 q 854 309 776 278 q 989 400 930 342 q 1080 534 1058 469 q 1111 694 1111 628 z "},"k":{"ha":1666,"x_min":0,"x_max":1270,"o":"m 1270 1389 l 1270 0 l 991 0 l 991 521 l 392 0 l 0 0 l 795 694 l 117 1389 l 472 1389 l 991 868 l 991 1389 l 1270 1389 z "},"l":{"ha":1666,"x_min":0,"x_max":1389,"o":"m 1389 1389 l 1389 1111 l 1111 1111 l 1111 278 l 1389 278 l 1389 0 l 0 0 l 0 556 l 278 556 l 278 278 l 833 278 l 833 1111 l 556 1111 l 556 1389 l 1389 1389 z "},"m":{"ha":1666,"x_min":0,"x_max":1389,"o":"m 1389 0 m 1389 0 l 1111 0 l 1111 903 l 833 556 l 556 556 l 278 903 l 278 0 l 0 0 l 0 1389 l 278 1389 l 694 833 l 1111 1389 l 1389 1389 l 1389 0 z "},"n":{"ha":1666,"x_min":0,"x_max":1389,"o":"m 1389 1389 l 1389 0 l 833 0 l 833 278 l 1111 278 l 1111 964 l 278 0 l 0 0 l 0 1389 l 556 1389 l 556 1111 l 278 1111 l 278 425 l 1111 1389 l 1389 1389 z "},"o":{"ha":1666,"x_min":0,"x_max":1389,"o":"m 854 1080 q 694 1111 776 1111 q 534 1080 613 1111 q 400 989 458 1047 q 309 854 342 930 q 278 694 278 776 q 309 534 278 613 q 400 400 342 458 q 534 309 458 342 q 694 278 613 278 q 854 309 776 278 q 989 400 930 342 q 1080 534 1047 458 q 1111 694 1111 613 q 1080 854 1111 776 q 989 989 1047 930 q 854 1080 930 1047 m 429 1336 q 492 1362 429 1336 q 694 1389 556 1389 q 960 1336 833 1389 q 1184 1184 1088 1283 q 1336 960 1283 1088 q 1389 694 1389 833 q 1336 429 1389 556 q 1184 205 1283 301 q 960 53 1088 106 q 694 0 833 0 q 429 53 556 0 q 205 205 301 106 q 53 429 106 301 q 0 694 0 556 q 53 960 0 833 q 205 1184 106 1088 q 429 1336 301 1283 z "},"p":{"ha":1666,"x_min":0,"x_max":1251,"o":"m 418 1111 q 365 1100 391 1111 q 319 1070 339 1090 q 289 1025 298 1047 q 278 972 278 997 q 289 920 278 945 q 319 875 298 898 q 365 845 342 852 q 418 833 381 837 l 484 833 l 694 833 l 694 1111 l 471 1111 l 418 1111 m 418 1389 q 479 1389 418 1389 l 1251 1389 l 1251 1111 l 972 1111 l 972 278 l 1251 278 l 1251 0 l 418 0 l 418 278 l 694 278 l 694 556 l 484 556 l 418 556 q 258 587 294 572 q 123 678 182 618 q 33 812 64 736 q 0 972 0 890 q 33 1133 0 1055 q 123 1267 65 1210 q 258 1356 182 1326 q 418 1389 340 1389 z "},"q":{"ha":1666,"x_min":0,"x_max":1389,"o":"m 0 0 l 0 100 l 153 266 q 53 429 83 346 q 0 694 0 578 q 53 960 0 834 q 205 1184 104 1084 q 429 1336 305 1284 q 694 1389 555 1389 q 960 1336 834 1389 q 1184 1184 1084 1284 q 1336 960 1284 1084 q 1389 694 1389 834 q 1336 429 1389 557 q 1184 205 1286 307 q 962 53 1086 107 q 750 0 840 0 q 734 0 742 0 q 716 0 724 0 q 694 0 705 0 q 357 88 537 0 l 273 0 l 0 0 m 343 468 q 556 694 343 468 l 731 498 l 553 302 q 675 277 618 277 q 681 278 678 277 q 688 278 681 278 q 694 278 690 278 q 854 309 776 278 q 989 400 926 338 q 1080 534 1047 458 q 1111 694 1111 613 q 1080 854 1111 776 q 989 989 1047 930 q 854 1080 930 1047 q 694 1111 776 1111 q 534 1080 613 1111 q 400 989 458 1047 q 309 854 342 930 q 278 694 278 776 q 309 534 278 648 q 343 468 321 498 z "},"r":{"ha":1666,"x_min":0,"x_max":1389,"o":"m 658 556 l 278 0 l 0 0 l 414 582 q 262 678 296 644 q 171 812 202 732 q 138 972 138 890 q 171 1133 138 1053 q 262 1267 201 1206 q 396 1356 319 1326 q 556 1389 438 1373 l 617 1389 l 1389 1389 l 1389 1111 l 1111 1111 l 1111 278 l 1389 278 l 1389 0 l 833 0 l 834 278 l 833 278 l 833 556 l 658 556 m 556 1111 q 503 1100 529 1111 q 457 1070 477 1090 q 427 1025 437 1047 q 416 972 416 997 q 427 920 416 945 q 457 875 437 898 q 503 845 480 852 q 556 833 519 837 l 623 833 l 833 833 l 833 1111 l 609 1111 l 556 1111 z "},"s":{"ha":1666,"x_min":0,"x_max":1392,"o":"m 416 0 q 256 33 334 0 q 122 122 182 62 q 33 256 62 182 q 0 416 0 334 q 33 576 0 499 q 122 711 62 654 q 256 802 186 772 q 416 833 331 833 l 974 833 l 975 833 q 1028 845 1001 833 q 1072 875 1057 859 q 1103 920 1093 894 q 1114 972 1114 948 q 1103 1025 1114 997 q 1073 1070 1093 1050 q 1028 1100 1053 1090 q 975 1111 1000 1111 l 419 1111 q 366 1100 395 1111 q 323 1069 339 1089 q 292 1025 302 1053 q 281 972 281 997 l 281 970 l 3 970 l 3 972 q 35 1133 3 1055 q 125 1267 65 1207 q 259 1356 184 1326 q 419 1389 336 1389 l 975 1389 q 1135 1356 1058 1389 q 1270 1267 1210 1326 q 1359 1133 1329 1207 q 1392 972 1392 1055 q 1359 812 1392 890 q 1270 678 1329 738 q 1135 587 1217 625 q 975 556 1065 556 l 974 556 l 416 556 q 363 544 391 556 q 319 514 336 532 q 289 469 298 494 q 278 416 278 446 q 289 363 278 387 q 319 320 298 338 q 363 289 338 298 q 416 278 392 278 l 419 278 l 975 278 q 1028 289 1000 278 q 1072 320 1055 300 q 1103 363 1092 336 q 1114 416 1114 392 l 1114 419 l 1392 419 l 1392 416 q 1359 256 1392 334 q 1270 122 1329 182 q 1135 33 1210 62 q 975 0 1058 0 l 416 0 z "},"t":{"ha":1666,"x_min":0,"x_max":1389,"o":"m 278 1111 m 278 1111 m 1389 1389 l 1389 833 l 1111 833 l 1111 1111 l 833 1111 l 833 278 l 1111 278 l 1111 0 l 278 0 l 278 278 l 556 278 l 556 1111 l 278 1111 l 278 833 l 0 833 l 0 1389 l 1389 1389 z "},"u":{"ha":1666,"x_min":-1,"x_max":1389,"o":"m 1105 694 q 1109 833 1109 727 l 1109 1389 l 1388 1389 l 1389 833 l 1388 694 q 1335 429 1360 490 q 1183 205 1282 301 q 959 53 1086 106 q 693 0 831 0 q 427 53 555 0 q 203 205 300 106 q 52 429 104 301 q -1 694 24 494 q -1 833 -1 694 l -1 1389 l 277 1389 l 277 833 l 277 694 q 308 534 289 586 q 399 400 340 458 q 533 309 457 342 q 693 278 612 278 q 853 309 774 278 q 987 400 929 342 q 1078 534 1047 460 q 1105 694 1093 574 z "},"v":{"ha":1666,"x_min":0,"x_max":1389,"o":"m 510 829 l 694 347 l 884 825 l 1111 1389 l 1389 1389 l 833 0 l 556 0 l 0 1389 l 278 1389 l 510 829 z "},"w":{"ha":1666,"x_min":-3,"x_max":1389,"o":"m 1389 1389 l 1289 0 l 830 0 l 692 416 l 553 0 l 95 0 l -3 1389 l 302 1389 l 414 286 l 553 833 l 830 833 l 970 278 l 1081 1389 l 1389 1389 z "},"x":{"ha":1666,"x_min":0,"x_max":1389,"o":"m 1389 0 l 1015 0 l 696 438 l 374 0 l 0 0 l 507 694 l 0 1389 l 374 1389 l 696 951 l 1015 1389 l 1389 1389 l 882 694 l 1389 0 z "},"y":{"ha":1666,"x_min":0,"x_max":1389,"o":"m 556 632 l 509 697 l 410 831 l 0 1389 l 374 1389 l 694 952 l 1015 1389 l 1389 1389 l 883 697 l 833 629 l 833 0 l 556 0 l 556 632 z "},"z":{"ha":1666,"x_min":0,"x_max":1389,"o":"m 967 278 m 278 278 m 422 1111 m 278 278 m 0 1389 l 1389 1389 l 1389 833 l 1111 833 l 1111 1111 l 425 1111 l 1389 278 l 1389 0 l 0 0 l 0 556 l 278 556 l 278 278 l 964 278 l 0 1111 l 0 1389 z "}}}
